<?xml version="1.0" standalone="no"?>
<!DOCTYPE svg PUBLIC "-//W3C//DTD SVG 20010904//EN"
 "http://www.w3.org/TR/2001/REC-SVG-20010904/DTD/svg10.dtd">
<svg version="1.0" xmlns="http://www.w3.org/2000/svg"
 width="512.000000pt" height="512.000000pt" viewBox="0 0 512.000000 512.000000"
 preserveAspectRatio="xMidYMid meet">

<g transform="translate(0.000000,512.000000) scale(0.100000,-0.100000)"
fill="#000000" stroke="none">
<path d="M3748 4922 c-357 -108 -648 -199 -648 -202 0 -3 91 -53 203 -113 111
-59 360 -192 553 -296 l352 -188 228 69 c356 107 349 89 216 534 -50 166 -98
314 -108 329 -21 32 -83 65 -121 64 -15 0 -319 -89 -675 -197z"/>
<path d="M1373 4206 c-309 -94 -564 -173 -566 -176 -3 -3 244 -139 549 -302
l554 -297 212 64 c117 35 337 100 488 145 417 123 441 131 435 140 -4 7 -171
98 -445 242 -47 25 -197 106 -335 180 -137 74 -268 144 -290 155 l-40 20 -562
-171z"/>
<path d="M1425 2880 l-450 -450 -303 0 -302 0 2 -1164 c3 -1159 3 -1165 24
-1192 11 -15 33 -37 48 -48 l27 -21 2140 -3 c2130 -2 2140 -2 2179 18 26 13
47 34 60 60 20 39 20 56 20 1581 0 1537 0 1543 -21 1585 -15 31 -32 48 -63 63
-39 19 -60 21 -277 21 l-234 0 -450 -450 -451 -450 -604 0 -605 1 455 449 455
449 -600 1 -600 0 -450 -450z m1425 -1230 c345 -230 486 -329 500 -353 12 -19
20 -50 20 -77 0 -27 -8 -58 -20 -77 -14 -24 -155 -123 -500 -353 -461 -307
-482 -320 -528 -320 -56 0 -104 26 -132 72 -19 32 -20 52 -20 678 0 626 1 646
20 678 28 46 76 72 132 72 46 0 67 -13 528 -320z"/>
</g>
</svg>
